<svg xmlns="http://www.w3.org/2000/svg" viewBox="0 0 720 260" role="img" aria-label="א.ל פרוייקטים והתקנות">
  <defs>
    <linearGradient id="gold" x1="0" x2="1" y1="0" y2="1">
      <stop offset="0" stop-color="#fff0bd"/>
      <stop offset="0.45" stop-color="#d6b66f"/>
      <stop offset="1" stop-color="#8f6b24"/>
    </linearGradient>
    <filter id="soft" x="-20%" y="-20%" width="140%" height="140%">
      <feDropShadow dx="0" dy="10" stdDeviation="12" flood-color="#000" flood-opacity="0.18"/>
    </filter>
  </defs>
  <rect width="720" height="260" fill="none"/>
  <g filter="url(#soft)">
    <path d="M360 20 C445 20 520 50 574 96 C550 150 488 205 360 238 C232 205 170 150 146 96 C200 50 275 20 360 20Z" fill="#111319" stroke="url(#gold)" stroke-width="8"/>
    <path d="M214 130 C255 86 306 76 360 108 C414 76 465 86 506 130" fill="none" stroke="url(#gold)" stroke-width="7" stroke-linecap="round"/>
    <path d="M214 130 H506 V165 H214Z" fill="none" stroke="#f4e4b3" stroke-width="6"/>
    <path d="M250 132 V165 M290 118 V165 M330 108 V165 M390 108 V165 M430 118 V165 M470 132 V165" stroke="#f4e4b3" stroke-width="6" stroke-linecap="round"/>
  </g>
  <text x="360" y="145" text-anchor="middle" direction="rtl" unicode-bidi="bidi-override" font-size="74" font-weight="900" font-family="Heebo, Assistant, Arial, sans-serif" fill="#ffffff">א.ל</text>
  <text x="360" y="216" text-anchor="middle" direction="rtl" unicode-bidi="bidi-override" font-size="35" font-weight="800" font-family="Heebo, Assistant, Arial, sans-serif" letter-spacing="1" fill="url(#gold)">פרוייקטים והתקנות</text>
</svg>
